<svg width="800" height="800" viewBox="0 0 800 800" fill="none" xmlns="http://www.w3.org/2000/svg">
<circle cx="400" cy="400" r="400" fill="url(#paint0_linear_281_211)"/>
<g filter="url(#filter0_d_281_211)">
<path d="M338.496 632.944C318.638 632.965 299.435 633.036 280.233 632.977C273.553 632.957 271.858 630.351 275.855 625.12C285.503 612.494 286.018 597.663 286.856 582.952C287.412 573.194 286.69 563.369 287.074 553.595C287.308 547.649 285.273 544.538 279.4 542.727C261.012 537.057 243.57 529.148 226.797 519.69C221.802 516.873 219.907 513.483 220.003 507.721C220.346 487.279 220.119 466.827 220.216 446.38C220.226 444.232 219.151 441.197 222.689 440.552C226.108 439.928 226.431 442.963 227.264 445.03C236.889 468.921 251.512 489.185 271.415 505.609C274.263 507.959 277.343 510.053 280.444 512.071C284.42 514.659 286.565 513.226 286.893 508.719C287.035 506.77 286.968 504.806 286.969 502.848C286.973 453.251 286.891 403.653 287.088 354.056C287.111 348.272 285.533 344.53 280.609 341.087C267.137 331.668 255.168 320.539 246.328 306.5C224.743 272.224 230.488 220.249 270.091 190.678C291.82 174.453 316.117 165.567 343.129 163.59C390.255 160.14 433.711 172.015 474.802 194.302C479.782 197.003 481.985 200.083 481.814 206.002C481.363 221.651 481.753 237.323 481.591 252.984C481.563 255.7 483.276 259.6 479.028 260.764C474.604 261.977 473.689 257.998 472.215 255.232C456.981 226.649 435.758 204.195 405.043 192.291C380.437 182.755 355.071 180.976 329.437 188.473C308.705 194.536 283.525 218.606 286.376 248.664C288.051 266.327 298.385 277.873 312.382 287.192C323.2 294.395 334.972 294.8 347.493 293.844C390.488 290.559 433.285 290.624 474.836 304.688C524.893 321.632 562.757 352.108 582.608 402.105C612.348 477.008 582.915 568.753 505.354 608.211C476.926 622.672 446.712 629.82 415.048 631.981C389.754 633.707 364.447 632.462 338.496 632.944ZM520.597 391.775C515.971 382.613 510.487 373.993 504.006 366.027C478.237 334.356 445.742 315.484 404.107 314.506C389.939 314.173 375.753 314.587 361.576 314.711C359.707 314.727 357.54 314.305 356.416 316.956C357.093 319.179 359.325 319.814 361.15 320.812C377.976 330.011 394.901 339.032 411.636 348.393C424.366 355.514 437.263 362.353 448.886 371.338C484.408 398.8 499.363 441.301 486.795 481.879C476.426 515.356 451.839 534.916 420.161 546.943C396.233 556.028 371.291 557.111 346.087 555.984C338.619 555.65 337.685 556.513 337.652 563.892C337.592 577.377 337.715 590.863 337.588 604.346C337.55 608.399 338.912 610.434 343.226 610.328C370.237 609.666 397.348 612.267 424.257 608.777C459.531 604.201 488.95 588.1 508.856 558.71C544.498 506.084 546.45 450.145 520.597 391.775ZM337.622 514.596C337.624 518.077 338.009 521.609 337.545 525.026C336.721 531.109 340.153 533.67 345.198 534.068C364.666 535.603 383.973 535.687 402.186 526.806C427.541 514.441 442.557 486.764 439.263 459.259C436.891 439.444 426.017 425.04 410.972 413.368C391.579 398.322 368.935 388.667 347.667 376.737C339.218 371.998 337.641 373.091 337.637 382.778C337.62 426.285 337.625 469.792 337.622 514.596Z" fill="#2C1D0B"/>
<path d="M343.057 162.593C390.408 159.127 434.054 171.063 475.278 193.423C477.846 194.816 479.808 196.364 481.088 198.416C482.374 200.479 482.903 202.941 482.813 206.031C482.391 220.702 482.708 235.325 482.615 250.048L482.591 252.994C482.585 253.592 482.674 254.264 482.769 255.064C482.858 255.826 482.949 256.692 482.889 257.528C482.827 258.377 482.605 259.269 482.011 260.047C481.411 260.832 480.512 261.394 479.292 261.729C478.04 262.071 476.945 262.071 475.985 261.748C475.027 261.426 474.305 260.817 473.739 260.121C473.182 259.435 472.751 258.631 472.381 257.872C471.989 257.069 471.692 256.378 471.332 255.702C456.181 227.275 435.12 205.02 404.682 193.224C380.264 183.761 355.123 182.003 329.718 189.433C319.563 192.402 308.253 199.812 299.84 210.2C291.435 220.578 285.976 233.858 287.371 248.57C289.007 265.814 299.072 277.128 312.937 286.359C323.463 293.368 334.946 293.799 347.416 292.847C390.45 289.559 433.411 289.611 475.157 303.741C525.435 320.759 563.558 351.416 583.537 401.736C613.456 477.09 583.856 569.396 505.808 609.102C477.239 623.635 446.889 630.81 415.116 632.979C389.802 634.706 364.363 633.464 338.515 633.944H338.497C321.125 633.963 304.247 634.019 287.433 633.993L280.229 633.978C278.507 633.972 277.036 633.801 275.866 633.43C274.699 633.059 273.726 632.453 273.176 631.504C272.615 630.537 272.606 629.413 272.957 628.26C273.305 627.119 274.026 625.867 275.061 624.513C284.489 612.173 285.016 597.677 285.858 582.896C286.134 578.056 286.092 573.191 286.029 568.292C285.966 563.403 285.882 558.474 286.075 553.556C286.188 550.689 285.745 548.676 284.706 547.181C283.67 545.688 281.929 544.553 279.105 543.683C260.637 537.988 243.129 530.047 226.306 520.561C223.706 519.095 221.823 517.428 220.62 515.302C219.418 513.177 218.954 510.696 219.004 507.705C219.346 487.268 219.119 466.846 219.216 446.375C219.218 445.89 219.159 445.377 219.111 444.728C219.067 444.121 219.035 443.422 219.142 442.746C219.251 442.055 219.513 441.335 220.095 440.736C220.674 440.139 221.481 439.756 222.51 439.568C223.509 439.386 224.381 439.454 225.13 439.781C225.879 440.109 226.403 440.651 226.784 441.235C227.157 441.808 227.414 442.454 227.621 443.036C227.845 443.665 227.992 444.16 228.191 444.656C237.755 468.396 252.281 488.523 272.052 504.838C274.855 507.151 277.897 509.221 280.989 511.233L281.341 511.454C283.052 512.488 284.032 512.47 284.55 512.182C285.145 511.85 285.735 510.852 285.896 508.646C286.034 506.746 285.969 504.851 285.969 502.848C285.974 453.253 285.891 403.651 286.088 354.052C286.099 351.248 285.721 349.032 284.803 347.128C283.888 345.231 282.395 343.556 280.035 341.906C266.49 332.436 254.413 321.216 245.481 307.033C223.628 272.331 229.458 219.77 269.493 189.876C291.378 173.535 315.859 164.584 343.057 162.593ZM404.083 315.506C389.937 315.173 375.789 315.587 361.585 315.711C361.334 315.713 361.081 315.708 360.844 315.703C360.601 315.698 360.373 315.694 360.148 315.696C359.696 315.7 359.304 315.73 358.958 315.816C358.42 315.95 357.913 316.231 357.499 317.004C357.777 317.631 358.252 318.089 358.895 318.503C359.279 318.75 359.706 318.972 360.177 319.204C360.632 319.428 361.149 319.671 361.63 319.935C378.442 329.126 395.385 338.157 412.124 347.521C424.823 354.624 437.801 361.505 449.497 370.547C485.315 398.237 500.454 441.159 487.75 482.175C477.262 516.036 452.379 535.781 420.517 547.878C396.398 557.035 371.294 558.112 346.042 556.982C344.178 556.899 342.796 556.895 341.753 557.032C340.716 557.168 340.135 557.429 339.765 557.775C339.397 558.12 339.105 558.673 338.916 559.681C338.725 560.697 338.66 562.055 338.651 563.896C338.591 577.355 338.715 590.877 338.588 604.355C338.569 606.315 338.902 607.522 339.528 608.239C340.122 608.919 341.181 609.379 343.201 609.329C356.729 608.997 370.308 609.482 383.79 609.613C397.295 609.744 410.744 609.521 424.129 607.785C459.158 603.241 488.304 587.271 508.028 558.148C543.449 505.851 545.412 450.292 519.694 392.207C515.1 383.111 509.658 374.558 503.23 366.658C477.615 335.175 445.379 316.476 404.083 315.506ZM342.24 375.275C340.99 374.889 340.359 374.985 340.009 375.2C339.648 375.422 339.263 375.964 338.998 377.278C338.739 378.565 338.638 380.365 338.637 382.778C338.62 426.285 338.626 469.792 338.622 514.596C338.623 516.33 338.718 518.015 338.758 519.812C338.797 521.575 338.778 523.375 338.536 525.161C338.152 527.996 338.777 529.819 339.894 530.988C341.041 532.19 342.879 532.882 345.276 533.071C364.717 534.604 383.792 534.663 401.748 525.907C426.723 513.729 441.513 486.458 438.271 459.378C435.939 439.91 425.268 425.724 410.359 414.158C391.042 399.172 368.575 389.611 347.178 377.609C345.074 376.43 343.469 375.655 342.24 375.275Z" stroke="#2C1D0B" stroke-width="2"/>
</g>
<defs>
<filter id="filter0_d_281_211" x="184" y="127" width="445.999" height="542" filterUnits="userSpaceOnUse" color-interpolation-filters="sRGB">
<feFlood flood-opacity="0" result="BackgroundImageFix"/>
<feColorMatrix in="SourceAlpha" type="matrix" values="0 0 0 0 0 0 0 0 0 0 0 0 0 0 0 0 0 0 127 0" result="hardAlpha"/>
<feOffset/>
<feGaussianBlur stdDeviation="17"/>
<feComposite in2="hardAlpha" operator="out"/>
<feColorMatrix type="matrix" values="0 0 0 0 0 0 0 0 0 0 0 0 0 0 0 0 0 0 0.25 0"/>
<feBlend mode="normal" in2="BackgroundImageFix" result="effect1_dropShadow_281_211"/>
<feBlend mode="normal" in="SourceGraphic" in2="effect1_dropShadow_281_211" result="shape"/>
</filter>
<linearGradient id="paint0_linear_281_211" x1="700.5" y1="687" x2="102" y2="129" gradientUnits="userSpaceOnUse">
<stop stop-color="#C8AE7D"/>
<stop offset="1" stop-color="#F8E9CF"/>
</linearGradient>
</defs>
</svg>
