<svg width="801" height="801" viewBox="0 0 801 801" fill="none" xmlns="http://www.w3.org/2000/svg">
<circle cx="400.5" cy="400.5" r="400" fill="#6A0DAD"/>
<g filter="url(#filter0_i_98_34)">
<path d="M324.506 659.938C301.463 659.962 279.179 660.04 256.896 659.975C249.145 659.952 247.178 657.074 251.816 651.299C263.012 637.356 263.609 620.979 264.582 604.734C265.227 593.959 264.389 583.11 264.835 572.317C265.106 565.751 262.744 562.315 255.929 560.315C234.591 554.054 214.351 545.321 194.887 534.877C189.091 531.766 186.892 528.022 187.004 521.66C187.401 499.087 187.139 476.503 187.25 453.924C187.262 451.552 186.015 448.201 190.121 447.488C194.088 446.8 194.463 450.15 195.429 452.433C206.598 478.815 223.567 501.192 246.663 519.328C249.969 521.923 253.543 524.236 257.141 526.464C261.755 529.321 264.243 527.739 264.624 522.762C264.789 520.61 264.712 518.441 264.712 516.279C264.718 461.511 264.623 406.742 264.851 351.975C264.878 345.588 263.046 341.455 257.332 337.653C241.699 327.252 227.81 314.963 217.551 299.461C192.504 261.611 199.17 204.218 245.127 171.563C270.342 153.647 298.537 143.835 329.883 141.651C384.569 137.842 434.996 150.955 482.679 175.565C488.458 178.548 491.014 181.949 490.816 188.485C490.293 205.766 490.745 223.072 490.557 240.365C490.525 243.365 492.513 247.671 487.583 248.957C482.45 250.296 481.388 245.902 479.677 242.847C461.999 211.285 437.372 186.49 401.729 173.345C373.176 162.815 343.74 160.85 313.994 169.129C289.935 175.824 260.717 202.404 264.024 235.595C265.968 255.099 277.961 267.849 294.203 278.14C306.756 286.093 320.417 286.541 334.946 285.485C384.839 281.857 434.501 281.929 482.719 297.46C540.806 316.17 584.744 349.824 607.78 405.033C642.291 487.745 608.137 589.055 518.132 632.626C485.144 648.596 450.083 656.489 413.339 658.875C383.987 660.781 354.62 659.406 324.506 659.938ZM535.821 393.626C530.453 383.509 524.09 373.99 516.569 365.194C486.666 330.221 448.957 309.381 400.643 308.301C384.202 307.933 367.741 308.391 351.289 308.528C349.12 308.546 346.606 308.079 345.301 311.007C346.086 313.462 348.676 314.163 350.794 315.265C370.319 325.423 389.96 335.384 409.379 345.721C424.152 353.584 439.118 361.136 452.605 371.058C493.827 401.383 511.181 448.316 496.596 493.123C484.564 530.091 456.032 551.69 419.273 564.971C391.506 575.003 362.563 576.199 333.315 574.954C324.649 574.585 323.565 575.538 323.526 583.687C323.456 598.578 323.6 613.47 323.452 628.359C323.408 632.834 324.989 635.082 329.995 634.965C361.339 634.234 392.8 637.106 424.026 633.251C464.959 628.199 499.097 610.419 522.196 577.964C563.557 519.853 565.821 458.081 535.821 393.626ZM323.491 529.252C323.494 533.095 323.941 536.995 323.403 540.77C322.446 547.486 326.429 550.314 332.283 550.754C354.874 552.449 377.279 552.542 398.414 542.734C427.837 529.081 445.261 498.518 441.439 468.145C438.686 446.265 426.068 430.359 408.609 417.47C386.105 400.856 359.828 390.194 335.148 377.02C325.343 371.787 323.513 372.995 323.509 383.691C323.49 431.734 323.496 479.777 323.491 529.252Z" fill="#FCFCFC"/>
</g>
<defs>
<filter id="filter0_i_98_34" x="187" y="141" width="434" height="525.079" filterUnits="userSpaceOnUse" color-interpolation-filters="sRGB">
<feFlood flood-opacity="0" result="BackgroundImageFix"/>
<feBlend mode="normal" in="SourceGraphic" in2="BackgroundImageFix" result="shape"/>
<feColorMatrix in="SourceAlpha" type="matrix" values="0 0 0 0 0 0 0 0 0 0 0 0 0 0 0 0 0 0 127 0" result="hardAlpha"/>
<feOffset dy="6.07857"/>
<feGaussianBlur stdDeviation="13.6768"/>
<feComposite in2="hardAlpha" operator="arithmetic" k2="-1" k3="1"/>
<feColorMatrix type="matrix" values="0 0 0 0 0 0 0 0 0 0 0 0 0 0 0 0 0 0 0.25 0"/>
<feBlend mode="normal" in2="shape" result="effect1_innerShadow_98_34"/>
</filter>
</defs>
</svg>
